<?xml version="1.0" standalone="no"?>
<!DOCTYPE svg PUBLIC "-//W3C//DTD SVG 20010904//EN"
 "http://www.w3.org/TR/2001/REC-SVG-20010904/DTD/svg10.dtd">
<svg version="1.0" xmlns="http://www.w3.org/2000/svg"
 width="700.000000pt" height="700.000000pt" viewBox="0 0 700.000000 700.000000"
 preserveAspectRatio="xMidYMid meet">
<metadata>
Created by potrace 1.11, written by Peter Selinger 2001-2013
</metadata>
<g transform="translate(0.000000,700.000000) scale(0.100000,-0.100000)"
fill="#000000" stroke="none">
<path d="M5877 6364 c-1 -1 -20 -5 -42 -8 -216 -28 -429 -200 -508 -413 -35
-92 -45 -156 -41 -263 6 -197 100 -378 258 -496 123 -93 236 -128 406 -128
101 1 125 4 200 30 227 79 403 283 437 509 26 167 -9 337 -98 470 -128 191
-314 293 -547 300 -34 1 -63 0 -65 -1z"/>
<path d="M570 6287 c-59 -12 -116 -71 -125 -129 -8 -56 -1 -3705 7 -3738 4
-14 12 -59 18 -100 75 -472 306 -847 673 -1093 250 -167 604 -283 955 -314
112 -10 513 -10 617 0 220 20 467 76 639 144 578 227 957 659 1071 1218 43
212 43 208 44 2085 l1 1795 -21 43 c-23 46 -63 80 -106 89 -16 3 -237 6 -493
6 -431 1 -468 -1 -500 -17 -45 -24 -57 -38 -77 -83 -15 -35 -17 -186 -19
-1783 -1 -960 -4 -1763 -8 -1785 -12 -80 -38 -161 -74 -235 -53 -108 -167
-221 -282 -278 -147 -72 -281 -98 -505 -96 -282 2 -480 98 -614 299 -27 40
-59 103 -71 139 -51 153 -49 99 -50 1963 0 958 -3 1750 -7 1760 -12 34 -54 83
-86 100 -29 15 -80 17 -488 17 -251 1 -476 -3 -499 -7z"/>
<path d="M5008 4949 c-49 -8 -92 -42 -117 -91 -20 -42 -21 -54 -18 -428 2
-382 2 -385 25 -422 41 -66 83 -78 274 -78 l165 0 0 -1404 0 -1404 22 -45 c14
-28 36 -54 59 -68 l37 -23 475 -1 475 0 37 23 c20 13 47 40 60 60 l23 37 0
1861 c0 1841 0 1861 -20 1898 -12 22 -38 49 -64 64 l-44 26 -677 0 c-372 1
-693 -2 -712 -5z"/>
</g>
</svg>
